<svg width="89" height="89" viewBox="0 0 89 89" fill="none" xmlns="http://www.w3.org/2000/svg">
<g clip-path="url(#clip0_283860_27)">
<path d="M0 32.2095C0 20.9351 0 15.2979 2.19414 10.9917C4.12416 7.20381 7.20381 4.12416 10.9917 2.19414C15.2979 0 20.9351 0 32.2095 0H56.7905C68.0649 0 73.7021 0 78.0083 2.19414C81.7962 4.12416 84.8758 7.20381 86.8059 10.9917C89 15.2979 89 20.9351 89 32.2095V56.7905C89 68.0649 89 73.7021 86.8059 78.0083C84.8758 81.7962 81.7962 84.8758 78.0083 86.8059C73.7021 89 68.0649 89 56.7905 89H32.2095C20.9351 89 15.2979 89 10.9917 86.8059C7.20381 84.8758 4.12416 81.7962 2.19414 78.0083C0 73.7021 0 68.0649 0 56.7905V32.2095Z" fill="#330000"/>
<path d="M43.1282 55.931H29.3365L26.5305 64.8713C26.4525 65.2035 26.1467 65.4387 25.814 65.4224H18.8286C18.4303 65.4224 18.2909 65.1979 18.4107 64.7489L30.3514 29.4774C30.4709 29.1101 30.5904 28.6917 30.7098 28.2221C30.8659 27.4051 30.9459 26.5747 30.9486 25.7422C30.9144 25.4962 31.1305 25.279 31.3665 25.3135H40.8593C41.1375 25.3135 41.2967 25.4155 41.337 25.6197L54.89 64.81C55.0093 65.2186 54.8899 65.4227 54.5317 65.4224H46.77C46.4978 65.4534 46.2379 65.2667 46.1731 64.9938L43.1282 55.931ZM31.4858 48.2154H40.9191C39.3693 42.9193 37.6202 37.6929 36.2026 32.3555C34.6731 37.7019 33.0043 43.0267 31.4858 48.2154Z" fill="#FF9A00"/>
<path d="M62.9493 31.8042C62.3403 31.8293 61.7331 31.7223 61.1672 31.4901C60.6014 31.258 60.0896 30.9059 59.6655 30.4571C59.2426 29.9887 58.9141 29.4392 58.6989 28.8402C58.4837 28.2412 58.3861 27.6045 58.4116 26.9667C58.3899 26.3351 58.4984 25.706 58.7298 25.1204C58.9613 24.5348 59.3106 24.0058 59.755 23.5681C60.195 23.1349 60.7145 22.7955 61.2832 22.5695C61.852 22.3435 62.4588 22.2355 63.0686 22.2516C64.5016 22.2516 65.626 22.6904 66.4419 23.5681C66.8538 24.0242 67.1739 24.5592 67.3839 25.1424C67.5939 25.7255 67.6897 26.3455 67.6658 26.9667C67.6908 27.607 67.59 28.2459 67.3695 28.8455C67.149 29.4451 66.8132 29.9931 66.3822 30.4571C65.9317 30.9125 65.3941 31.2674 64.8032 31.4992C64.2124 31.7311 63.5812 31.8349 62.9493 31.8042ZM58.8295 64.8098V35.5395C58.8295 35.1721 58.9882 34.9884 59.3072 34.9884H66.6509C66.969 34.9884 67.1283 35.1721 67.1286 35.5395V64.8098C67.1286 65.2184 66.9693 65.4225 66.6509 65.4222H59.367C59.0088 65.4222 58.8297 65.2181 58.8295 64.8098Z" fill="#FF9A00"/>
</g>
<defs>
<clipPath id="clip0_283860_27">
<rect width="89" height="89" fill="white"/>
</clipPath>
</defs>
</svg>
