<svg width="89" height="89" viewBox="0 0 89 89" fill="none" xmlns="http://www.w3.org/2000/svg">
<g clip-path="url(#clip0_283860_38)">
<path d="M0 32.2095C0 20.9351 0 15.2979 2.19414 10.9917C4.12416 7.20381 7.20381 4.12416 10.9917 2.19414C15.2979 0 20.9351 0 32.2095 0H56.7905C68.0649 0 73.7021 0 78.0083 2.19414C81.7962 4.12416 84.8758 7.20381 86.8059 10.9917C89 15.2979 89 20.9351 89 32.2095V56.7905C89 68.0649 89 73.7021 86.8059 78.0083C84.8758 81.7962 81.7962 84.8758 78.0083 86.8059C73.7021 89 68.0649 89 56.7905 89H32.2095C20.9351 89 15.2979 89 10.9917 86.8059C7.20381 84.8758 4.12416 81.7962 2.19414 78.0083C0 73.7021 0 68.0649 0 56.7905V32.2095Z" fill="#49021F"/>
<path d="M30.4891 26.05V65.0566C30.4891 65.4652 30.31 65.6693 29.9519 65.669H22.7275C22.4086 65.669 22.2495 65.4649 22.25 65.0566V26.05C22.25 25.7237 22.4291 25.5604 22.7872 25.5601H30.0115C30.2855 25.5201 30.5281 25.7689 30.4891 26.05Z" fill="#FF3366"/>
<path d="M51.8633 66.2812C49.1153 66.3241 46.3924 65.7384 43.8928 64.5666C38.5859 62.0475 36.2799 56.4722 36.2805 50.7275C36.2347 44.997 39.2698 39.5368 44.2212 36.8271C47.6391 34.8853 51.6596 34.392 55.5052 34.7452V22.6819C55.5052 22.3967 55.6247 22.2532 55.8636 22.2532H63.3861C63.5917 22.2231 63.7738 22.4097 63.7445 22.6206V58.8105C63.7445 60.3037 63.8924 61.7916 63.9833 63.2806C63.9979 63.535 63.8508 63.7866 63.625 63.893C61.6843 64.7232 59.6628 65.339 57.595 65.73C55.7042 66.088 53.786 66.2724 51.8633 66.2812ZM55.5052 58.688V41.9709C50.0768 40.4626 44.7578 44.6072 44.7585 50.3601C44.6272 56.385 49.9992 60.3397 55.5052 58.688Z" fill="#FF3366"/>
</g>
<defs>
<clipPath id="clip0_283860_38">
<rect width="89" height="89" fill="white"/>
</clipPath>
</defs>
</svg>
