<svg width="89" height="89" viewBox="0 0 89 89" fill="none" xmlns="http://www.w3.org/2000/svg">
<g clip-path="url(#clip0_283860_16)">
<path d="M0 32.2095C0 20.9351 0 15.2979 2.19414 10.9917C4.12416 7.20381 7.20381 4.12416 10.9917 2.19414C15.2979 0 20.9351 0 32.2095 0H56.7905C68.0649 0 73.7021 0 78.0083 2.19414C81.7962 4.12416 84.8758 7.20381 86.8059 10.9917C89 15.2979 89 20.9351 89 32.2095V56.7905C89 68.0649 89 73.7021 86.8059 78.0083C84.8758 81.7962 81.7962 84.8758 78.0083 86.8059C73.7021 89 68.0649 89 56.7905 89H32.2095C20.9351 89 15.2979 89 10.9917 86.8059C7.20381 84.8758 4.12416 81.7962 2.19414 78.0083C0 73.7021 0 68.0649 0 56.7905V32.2095Z" fill="#001E36"/>
<path d="M19.0714 65.2115V26.0743C19.0714 25.8081 19.1827 25.6559 19.4423 25.6559C23.2745 25.6559 27.1049 25.4277 30.9381 25.4277C37.158 25.4277 43.8929 27.5545 46.2535 34.0615C46.8098 35.6589 47.1064 37.2944 47.1064 39.0059C47.1064 42.2769 46.3648 44.9773 44.8814 47.1072C40.7379 53.0569 33.5562 52.9645 27.1185 52.9645V65.1735C27.1689 65.5349 26.8608 65.7059 26.5623 65.7059H19.5164C19.2198 65.7059 19.0714 65.5538 19.0714 65.2115ZM27.1556 32.9965V45.776C29.7082 45.963 32.3793 45.9833 34.8319 45.1675C37.5395 44.3864 39.0223 42.0426 39.0223 39.2341C39.0975 36.841 37.7935 34.5448 35.5735 33.6812C33.1505 32.6737 29.7712 32.6133 27.1556 32.9965Z" fill="#31A8FF"/>
<path d="M70.2358 43.2512C69.1138 42.6599 67.9188 42.2273 66.6834 41.9652C65.0959 41.5916 58.8347 40.2834 58.8323 43.5573C58.8879 45.3851 61.7892 46.2806 63.0712 46.8028C67.5716 48.3478 72.6643 51.1097 72.5642 56.6616C72.7018 63.5732 66.0054 66.3361 60.2652 66.3368C57.2768 66.3677 54.1638 65.9049 51.4289 64.6222C51.1678 64.4839 50.9998 64.1884 51.011 63.8873V57.2739C50.9816 57.0088 51.2661 56.7771 51.4886 56.9678C54.1682 58.5883 57.3444 59.3751 60.4442 59.4172C61.8127 59.4172 64.5248 59.2845 64.5042 57.2739C64.5042 55.3445 61.2599 54.4574 59.9666 53.9672C58.0919 53.298 56.3144 52.371 54.6828 51.2117C52.4025 49.5852 50.9721 46.9774 51.011 44.1084C50.9977 37.6007 57.1618 34.6796 62.7131 34.6782C65.3083 34.6568 68.0951 34.849 70.5108 35.9029C70.8583 36.0052 70.9303 36.3711 70.9288 36.699V42.8837C70.9508 43.2676 70.5244 43.3984 70.2358 43.2512Z" fill="#31A8FF"/>
</g>
<defs>
<clipPath id="clip0_283860_16">
<rect width="89" height="89" fill="white"/>
</clipPath>
</defs>
</svg>
