<svg width="22" height="20" viewBox="0 0 22 20" fill="none" xmlns="http://www.w3.org/2000/svg">
<path d="M9.79524 0.85958C10.0951 -0.0606967 11.397 -0.0606959 11.6969 0.859581L13.4479 6.23398C13.5821 6.64561 13.9658 6.92418 14.3988 6.92418H20.0595C21.0289 6.92418 21.4312 8.16521 20.6462 8.73398L16.0714 12.0486C15.7199 12.3033 15.5728 12.7555 15.7073 13.1682L17.4558 18.5349C17.7559 19.4557 16.7026 20.2227 15.9183 19.6544L11.3328 16.3321C10.9827 16.0784 10.5094 16.0784 10.1593 16.3321L5.57378 19.6544C4.78952 20.2227 3.73623 19.4557 4.03626 18.5348L5.78483 13.1682C5.91928 12.7555 5.7722 12.3033 5.42074 12.0486L0.84587 8.73398C0.0608635 8.16521 0.463194 6.92418 1.43259 6.92418H7.09334C7.52627 6.92418 7.91003 6.64561 8.04415 6.23398L9.79524 0.85958Z" fill="#E5E5E5"/>
</svg>
