<svg width="14" height="14" viewBox="0 0 14 14" fill="none" xmlns="http://www.w3.org/2000/svg">
<path d="M0.86251 4.29852L3.27501 2.82852L0.89001 0.291016C0.85001 0.321016 0.82251 0.368516 0.82251 0.426016V4.08602C0.82251 4.15852 0.83751 4.23102 0.86251 4.29852V4.29852Z" fill="#FCA65C"/>
<path d="M6.79247 0.291016L4.40747 2.82852L6.85997 4.33852V0.423516C6.85997 0.368516 6.83247 0.321016 6.79247 0.291016V0.291016Z" fill="#FCA65C"/>
<path d="M0.889893 0.291016L3.19239 2.74102L2.70489 3.17852L1.91489 3.66352L0.889893 0.291016Z" fill="#F5934A"/>
<path d="M6.79249 0.289609L4.48999 2.73961L4.97749 3.17711L5.76749 3.66211L6.79249 0.287109V0.289609Z" fill="#F5934A"/>
<path d="M1.01239 0.252317C0.967393 0.247317 0.924893 0.262316 0.889893 0.289816L2.33239 2.82732H5.34989L6.79239 0.289816C6.74739 0.252316 6.68489 0.237317 6.62489 0.262317L3.84239 1.31732L1.05739 0.262317C1.04239 0.257317 1.02739 0.252317 1.01239 0.252317Z" fill="#FEB87E"/>
<path d="M2.19507 5.71039V12.3204C2.19507 12.3854 2.20757 12.4504 2.23007 12.5129L5.68257 9.87039L6.86007 4.33789L2.19757 5.71039H2.19507Z" fill="#F0F4F6"/>
<path d="M6.86007 4.33789L2.19507 10.2279V5.71039L6.85757 4.33789H6.86007Z" fill="#E2EEF2"/>
<path d="M6.85998 4.33594L2.22998 12.5109C2.25998 12.5984 2.30748 12.6809 2.37498 12.7484L3.19998 13.5734C3.31498 13.6884 3.46748 13.7509 3.62998 13.7509H7.00248L11.7875 11.9884L12.075 7.96594C12.0175 7.89844 11.9525 7.83844 11.88 7.78844L6.86248 4.33594H6.85998Z" fill="#FCA65C"/>
<path d="M11.4699 7.50781L10.1524 11.0153L5.57739 13.7503H6.99989L11.7849 11.9878L12.0724 7.96531C12.0149 7.89781 11.9499 7.83781 11.8774 7.78781L11.4699 7.50781V7.50781Z" fill="#F5934A"/>
<path d="M12.0726 7.96484L10.8926 11.3923L12.5826 11.1448L13.1501 10.0248C13.1301 9.94234 13.1001 9.86234 13.0601 9.78484L12.2001 8.15234C12.1651 8.08484 12.1201 8.02234 12.0701 7.96484H12.0726Z" fill="#FEB87E"/>
<path d="M5.35005 2.82781L3.84005 1.32031L2.33255 2.82781L0.862549 4.29781C0.892549 4.37781 0.937549 4.45281 1.00005 4.51531L2.19505 5.71031L2.50255 6.01781L3.79255 6.41781L5.17755 6.01781L6.85755 4.33781L5.34755 2.82781H5.35005Z" fill="#FDC99C"/>
<path d="M2.50244 6.01758L3.43744 6.95258C3.65994 7.17508 4.01994 7.17508 4.24244 6.95258L5.17744 6.01758H2.50244Z" fill="#9DACB9"/>
<path d="M13.15 10.0259L10.8925 11.3934L7 13.7509H12.925C13.065 13.7509 13.1775 13.6384 13.1775 13.4984V10.2584C13.1775 10.1784 13.1675 10.1009 13.15 10.0234V10.0259Z" fill="#FDC99C"/>
<path d="M3.84005 1.31836L2.05005 2.33586L2.33005 2.82836L3.83755 1.31836H3.84005Z" fill="#FCA65C"/>
<path d="M3.84009 1.31836L5.63009 2.33586L5.35009 2.82836L3.84259 1.31836H3.84009Z" fill="#FCA65C"/>
<path d="M13.1501 10.0254L11.2401 10.3829L10.8926 11.3929L13.1501 10.0254Z" fill="#FCA65C"/>
<path d="M2.19751 12.9255L3.02251 13.7505C3.18501 13.913 3.40001 14.0005 3.62751 14.0005H12.925C13.2025 14.0005 13.4275 13.7755 13.4275 13.498V10.258C13.4275 10.053 13.3775 9.85054 13.2825 9.66804L12.425 8.03554C12.33 7.85554 12.19 7.69804 12.02 7.58054L7.11001 4.20304V0.423037C7.11001 0.283037 7.04251 0.153037 6.92751 0.0755372C6.81251 -0.00446281 6.66751 -0.0219628 6.53751 0.0280372L3.84251 1.05054L1.14501 0.0280372C1.01501 -0.0219628 0.87001 -0.00446281 0.75501 0.0755372C0.64001 0.155537 0.57251 0.285537 0.57251 0.423037V4.08304C0.57251 4.31304 0.66251 4.52804 0.82251 4.68804L1.94501 5.81054V12.3155C1.94501 12.5455 2.03501 12.7605 2.19501 12.9205L2.19751 12.9255ZM2.44751 6.31304L3.26251 7.12804C3.58251 7.44804 4.10251 7.44804 4.42001 7.12804L5.73501 5.81304L2.44501 11.6205V6.31304H2.44751ZM3.11001 6.26804H4.57751L4.07001 6.77554C3.94501 6.90054 3.74251 6.90054 3.61751 6.77554L3.11001 6.26804ZM7.89751 13.5005L12.93 10.453V13.5005H7.89751V13.5005ZM12.84 9.90304C12.84 9.90304 12.84 9.91554 12.845 9.92054L11.355 10.823L12.1325 8.56054L12.84 9.90304V9.90304ZM11.7375 7.99554C11.7575 8.00804 11.765 8.03054 11.7825 8.04554L10.6875 11.2255L6.93251 13.5005H3.63001C3.53501 13.5005 3.44501 13.463 3.37751 13.3955L2.55251 12.5705C2.53501 12.553 2.53751 12.523 2.52501 12.5005L6.94251 4.69804L11.735 7.99554H11.7375ZM2.02001 2.78554L1.07251 3.73304V1.11804L2.02001 2.78554V2.78554ZM1.38251 0.653037L3.39001 1.41554L2.38501 2.42054L1.38001 0.655537L1.38251 0.653037ZM6.60751 1.11804V3.73304L5.66001 2.78554L6.60751 1.11804ZM5.29251 2.41804L4.28751 1.41304L6.29501 0.650537L5.29001 2.41804H5.29251ZM1.17501 4.33554L3.84001 1.67054L6.50501 4.33554L5.07501 5.76554H2.60751L1.17751 4.33554H1.17501Z" fill="black"/>
</svg>
